<mxfile host="app.diagrams.net" modified="2023-06-30T21:37:27.322Z" agent="Mozilla/5.0 (Windows NT 10.0; Win64; x64) AppleWebKit/537.36 (KHTML, like Gecko) Chrome/114.0.0.0 Safari/537.36 Edg/114.0.1823.58" version="21.5.2" etag="it00JkOxcjG9Ij60M1-h" type="github">
  <diagram name="PÃ¡gina-1" id="Z0Ody5lHnBG1sVF27rti">
    <mxGraphModel>
      <root>
        <mxCell id="0" />
        <mxCell id="1" parent="0" />
      </root>
    </mxGraphModel>
  </diagram>
</mxfile>
